<svg xmlns="http://www.w3.org/2000/svg" width="760" height="760" viewBox="0 0 760 760" role="img" aria-label="Mobile scheduler preview mock">
  <rect width="760" height="760" fill="#0a0c11"/>
  <rect x="236" y="42" width="288" height="676" rx="38" fill="#11141b" stroke="#31384a" stroke-width="6"/>
  <rect x="322" y="60" width="116" height="10" rx="5" fill="#4b5563"/>
  <rect x="260" y="98" width="240" height="594" rx="22" fill="#0f141d"/>
  <rect x="286" y="128" width="118" height="14" rx="7" fill="#94a3b8"/>
  <rect x="286" y="156" width="180" height="20" rx="10" fill="#f4f4f5" opacity="0.92"/>
  <rect x="286" y="194" width="190" height="10" rx="5" fill="#334155"/>
  <rect x="286" y="222" width="190" height="10" rx="5" fill="#273244"/>
  <rect x="286" y="258" width="188" height="38" rx="10" fill="#161b26"/>
  <rect x="286" y="306" width="88" height="34" rx="8" fill="#1f2937"/>
  <rect x="388" y="306" width="88" height="34" rx="8" fill="#2b6be4"/>
  <rect x="286" y="350" width="88" height="34" rx="8" fill="#1f2937"/>
  <rect x="388" y="350" width="88" height="34" rx="8" fill="#1f2937"/>
  <rect x="286" y="408" width="188" height="38" rx="10" fill="#161b26"/>
  <rect x="286" y="456" width="188" height="38" rx="10" fill="#161b26"/>
  <rect x="286" y="510" width="188" height="40" rx="10" fill="#2b6be4"/>
</svg>
