<svg xmlns="http://www.w3.org/2000/svg" width="1200" height="760" viewBox="0 0 1200 760" role="img" aria-label="Booking page preview mock">
  <rect width="1200" height="760" fill="#0b0d12"/>
  <rect x="60" y="70" width="1080" height="620" rx="22" fill="#11141b" stroke="#2e3442"/>
  <rect x="100" y="120" width="300" height="540" rx="14" fill="#0f141d" stroke="#293244"/>
  <rect x="430" y="120" width="390" height="540" rx="14" fill="#0f141d" stroke="#293244"/>
  <rect x="850" y="120" width="250" height="540" rx="14" fill="#0f141d" stroke="#293244"/>
  <rect x="132" y="160" width="140" height="18" rx="9" fill="#94a3b8"/>
  <rect x="132" y="194" width="220" height="24" rx="12" fill="#f4f4f5" opacity="0.9"/>
  <rect x="132" y="238" width="200" height="12" rx="6" fill="#334155"/>
  <rect x="132" y="270" width="190" height="12" rx="6" fill="#273244"/>
  <rect x="462" y="160" width="170" height="18" rx="9" fill="#94a3b8"/>
  <rect x="462" y="194" width="220" height="44" rx="10" fill="#161b26"/>
  <rect x="462" y="260" width="150" height="40" rx="10" fill="#1f2937"/>
  <rect x="628" y="260" width="150" height="40" rx="10" fill="#1f2937"/>
  <rect x="462" y="314" width="150" height="40" rx="10" fill="#2b6be4"/>
  <rect x="628" y="314" width="150" height="40" rx="10" fill="#1f2937"/>
  <rect x="462" y="368" width="150" height="40" rx="10" fill="#1f2937"/>
  <rect x="628" y="368" width="150" height="40" rx="10" fill="#1f2937"/>
  <rect x="882" y="160" width="120" height="18" rx="9" fill="#94a3b8"/>
  <rect x="882" y="198" width="186" height="42" rx="10" fill="#161b26"/>
  <rect x="882" y="258" width="186" height="42" rx="10" fill="#161b26"/>
  <rect x="882" y="318" width="186" height="42" rx="10" fill="#161b26"/>
  <rect x="882" y="386" width="186" height="44" rx="12" fill="#2b6be4"/>
</svg>
