<svg xmlns="http://www.w3.org/2000/svg" width="1200" height="760" viewBox="0 0 1200 760" role="img" aria-label="Dashboard preview mock">
  <defs>
    <linearGradient id="bg" x1="0" y1="0" x2="0" y2="1">
      <stop offset="0" stop-color="#111319"/>
      <stop offset="1" stop-color="#0c0e14"/>
    </linearGradient>
  </defs>
  <rect width="1200" height="760" fill="url(#bg)"/>
  <rect x="34" y="30" width="1132" height="700" rx="18" fill="#151821" stroke="#2a2f3a"/>
  <rect x="34" y="30" width="1132" height="66" rx="18" fill="#12151d"/>
  <rect x="72" y="52" width="140" height="20" rx="10" fill="#f4f4f5" opacity="0.9"/>
  <rect x="964" y="48" width="140" height="28" rx="14" fill="#2b6be4"/>
  <rect x="58" y="120" width="230" height="584" rx="14" fill="#11151d" stroke="#2c323f"/>
  <rect x="80" y="168" width="186" height="36" rx="10" fill="#1f2937"/>
  <rect x="80" y="220" width="186" height="36" rx="10" fill="#0f172a"/>
  <rect x="80" y="272" width="186" height="36" rx="10" fill="#0f172a"/>
  <rect x="316" y="120" width="826" height="270" rx="14" fill="#0f141d" stroke="#2c3342"/>
  <rect x="344" y="154" width="290" height="24" rx="12" fill="#f4f4f5" opacity="0.85"/>
  <rect x="344" y="194" width="430" height="14" rx="7" fill="#334155"/>
  <rect x="344" y="224" width="590" height="14" rx="7" fill="#273244"/>
  <rect x="344" y="288" width="164" height="40" rx="12" fill="#2b6be4"/>
  <rect x="526" y="288" width="190" height="40" rx="12" fill="#1f2937"/>
  <rect x="316" y="410" width="390" height="294" rx="14" fill="#0f141d" stroke="#2c3342"/>
  <rect x="734" y="410" width="408" height="294" rx="14" fill="#0f141d" stroke="#2c3342"/>
  <rect x="344" y="444" width="180" height="18" rx="9" fill="#e5e7eb" opacity="0.9"/>
  <rect x="344" y="476" width="314" height="12" rx="6" fill="#334155"/>
  <rect x="344" y="510" width="330" height="52" rx="10" fill="#161b26"/>
  <rect x="344" y="574" width="330" height="52" rx="10" fill="#161b26"/>
  <rect x="762" y="444" width="190" height="18" rx="9" fill="#e5e7eb" opacity="0.9"/>
  <rect x="762" y="476" width="302" height="12" rx="6" fill="#334155"/>
  <rect x="762" y="510" width="344" height="160" rx="12" fill="#161b26"/>
</svg>
